<svg xmlns="http://www.w3.org/2000/svg" viewBox="0 0 1200 630">
  <rect width="1200" height="630" fill="#f8f8f8"/>
  <path d="M160 160h880v310H160z" fill="none" stroke="#111111" stroke-width="3"/>
  <rect x="206" y="208" width="104" height="104" rx="18" fill="#111111"/>
  <path d="M232 280v-48h29c11 0 18 6 18 16 0 11-7 17-19 17h-13v15h-15Zm15-27h12c4 0 7-2 7-6s-3-6-7-6h-12v12Z" fill="#f8f8f8"/>
  <path d="M271 282c-8 0-15-3-21-7l7-10c5 4 10 6 15 6 4 0 7-2 7-5s-3-4-9-6c-10-3-18-6-18-16 0-9 8-15 20-15 8 0 15 2 20 6l-7 10c-4-3-9-5-14-5-4 0-6 2-6 5 0 3 3 4 10 6 11 3 18 7 18 16 0 10-8 15-22 15Z" fill="#e6b84b"/>
  <text x="206" y="386" font-family="Arial, Helvetica, sans-serif" font-size="68" font-weight="700" fill="#111111">Phillip Trummer</text>
  <text x="210" y="438" font-family="Arial, Helvetica, sans-serif" font-size="30" fill="#565656">AI systems, research notes, and selected projects.</text>
  <path d="M792 216h184M792 264h132M792 312h214M792 360h154" stroke="#0f7778" stroke-width="8" stroke-linecap="round"/>
</svg>
